<svg id="Calque_1" data-name="Calque 1" xmlns="http://www.w3.org/2000/svg" viewBox="0 0 480 480"><defs><style>.cls-1{fill:#a4c2cf;}.cls-2{fill:#fff;}</style></defs><title>logo1</title><path class="cls-1" d="M443.09,403.25c-.1,3.54-16.18,44.13-16.18,44.13q-11.9,34.86-23.42,69t-23,69q-10.79,32.4-21,64.3t-22.11,63.32H543.6c1.24,0,1.43.49.56,1.47a12.12,12.12,0,0,1-2,2,25.45,25.45,0,0,1-4.28,2.7,10.23,10.23,0,0,1-4.64,1.23H457l-4.46,15.22q-4.83,14.71-9.29,29.44a293.46,293.46,0,0,0-7.43,30.44,190.23,190.23,0,0,0-3.9,25.52q-1.32,14.24,4.27,25.52,4.83,9.81,13.56,12.27c5.82,1.64,23.79,3.31,29.24,3.31.11,0,.07,0-.09.15C569,827.59,633,740.27,633,638,633,522.63,551.59,426.29,443.09,403.25Z" transform="translate(-153 -398)"/><path class="cls-2" d="M579.16,697.83a4,4,0,0,0-1.94.56c-.68.37-1.26.67-1.75.92q-5.36,3.88-10.89,7.58a111.93,111.93,0,0,0-10.52,8L560.33,703q3.13-5.93,6.28-11.83a1.09,1.09,0,0,0,.37-.74q-.56-.56-2.31.09a7.06,7.06,0,0,0-2.12,1,.91.91,0,0,0-.46.37,2.12,2.12,0,0,1-.28.37q-2.59,2.4-5.26,4.71l-5.26,4.53-4.8,3.88a17.63,17.63,0,0,1-2.21,1.48c-.74.12-1.11-.06-1.11-.55a4.49,4.49,0,0,1,.37-1.67,14.93,14.93,0,0,1,.83-1.76,5.61,5.61,0,0,1,.64-1q1.85-3,3.88-5.73l4.06-5.55c.12-.12,0-.15-.37-.09s-.83.16-1.38.28-1.05.24-1.48.37a2,2,0,0,0-.83.37q-3.33,1.85-6.55,3.88c-1.49.94-3,1.88-4.41,2.82l-.11,0a10.63,10.63,0,0,0-1.66,1q-4.06,3.15-9,6.29c-.62.36-1.38.8-2.3,1.29a3.9,3.9,0,0,1-2.87.37,1.09,1.09,0,0,1-1-1.3,8.39,8.39,0,0,1,.55-2.31,16.35,16.35,0,0,1,1.11-2.31c.43-.74.77-1.29,1-1.66q2.58-4.44,3.78-6.1a3.71,3.71,0,0,0,1-2.59c0-.61-.4-.89-1.2-.83a8.31,8.31,0,0,0-2.67.74c-1,.43-1.94.89-2.86,1.39s-1.51.8-1.76.92c-2.21,1.36-4.36,2.8-6.45,4.34s-4.19,3.12-6.28,4.72l4.43-6.66a25.31,25.31,0,0,1,1.48-2.4c.73-1.11.92-2,.55-2.59-.62-.74-1.57-.74-2.86,0s-2.19,1.23-2.68,1.48c-1.72,1.23-3.32,2.47-4.8,3.7a48.1,48.1,0,0,1-4.79,3.51c-.42.17-.64.32-.69.46a7.72,7.72,0,0,1-5.4,1,8.23,8.23,0,0,1-5.17-2.77,16.52,16.52,0,0,0,1.11-3.7,3.49,3.49,0,0,0-1.11-3.24,6.27,6.27,0,0,0-3.32-1.2,13.71,13.71,0,0,0-4.16.28,9.77,9.77,0,0,0-3.23,1.2,28.56,28.56,0,0,0-6.27,3.42A15.24,15.24,0,0,0,467,698a5.55,5.55,0,0,0-.89.31,9.28,9.28,0,0,0-1.75,1L459.2,703a50.59,50.59,0,0,1-5.35,3.33l-2.31.92a2,2,0,0,1-2.31-.37q-.56-.55,0-2.13a25.09,25.09,0,0,1,1.48-3.32c.61-1.17,1.23-2.28,1.84-3.33s1.05-1.76,1.3-2.13q.56-.91,1.47-2.22a5.81,5.81,0,0,0,1.11-2.4c.12-.74-.06-1.11-.55-1.11a8.71,8.71,0,0,0-1.66.19,18.73,18.73,0,0,0-6.37,3.23Q444.8,696,442,698l-6.82,5.54c1-1.48,2-3,3-4.53s1.9-3.11,2.77-4.71a14.42,14.42,0,0,0,.92-1.76,2.22,2.22,0,0,0,.18-1.94c-.24-.49-.71-.65-1.38-.46s-1.2.34-1.57.46a24.65,24.65,0,0,0-4.89,2.4c-1.54,1-3,2-4.52,3.15l-7,5.54c.73-1,1.44-2,2.12-3s1.32-2,1.94-3.15c.24-.49.76-1.35,1.56-2.59s.9-2.15.28-2.77-1.57-.37-2.86.37a23.7,23.7,0,0,0-2.86,1.85c-1.48,1.11-3,2.22-4.52,3.33s-3.05,2.28-4.52,3.51h0a27.75,27.75,0,0,0-3,2.4,30.25,30.25,0,0,1-4.61,3.33,18.12,18.12,0,0,1-4.61,2,2.41,2.41,0,0,1-3-1.11,5.45,5.45,0,0,1,.46-4.8q1.38-2.77,2.31-4.44a17.42,17.42,0,0,0,1.48-2.22,9.61,9.61,0,0,1,1.47-2c.37-.37.12-.55-.74-.55-1.35.12-2.4.18-3.13.18a10.57,10.57,0,0,1-2-.18,13,13,0,0,0,1.56-3.06,3.35,3.35,0,0,0,.19-2.12,1.31,1.31,0,0,0-1.38-.74,7.71,7.71,0,0,0-3.33,1.29,7.15,7.15,0,0,0-1.29,1.21,11.89,11.89,0,0,0-1.38,1.94,6.37,6.37,0,0,0-.83,2.12,1.4,1.4,0,0,0,.73,1.57,25.3,25.3,0,0,1-2.49,2.87c-.91.91-1.85,1.79-2.81,2.64-.64.43-1.54,1.08-2.72,2a51.72,51.72,0,0,1-4.8,3.24,21.69,21.69,0,0,1-4.61,2.12c-1.42.43-2.31.09-2.68-1a5.07,5.07,0,0,1,0-2.77,19.23,19.23,0,0,1,1.2-3.79,25.9,25.9,0,0,1,1.94-3.69,15.91,15.91,0,0,1,2-2.69c.37-.37.3-.55-.19-.55a2.58,2.58,0,0,0-1.1.18,8.18,8.18,0,0,0-3.51,1.48l-.55.74c-2.84,2-5.63,4-8.4,6s-5.57,4-8.4,6a2,2,0,0,1-.92-2.13,10.66,10.66,0,0,1,.83-2.86,14.91,14.91,0,0,1,1.66-2.87,17.8,17.8,0,0,1,1.57-1.94,21.61,21.61,0,0,1,6.37-4.71,19.53,19.53,0,0,1,7.84-1.94,4.83,4.83,0,0,0,1.84-.37l1.85-.74c.12-.12.4-.37.83-.74s.34-.49-.28-.37a27.76,27.76,0,0,0-9.69,1.75,46.75,46.75,0,0,0-8.76,4.35,25.47,25.47,0,0,0-6.46,6.1c-.62,1-1.32,2.19-2.12,3.6a4.47,4.47,0,0,0-.47,4,2.22,2.22,0,0,0,2.22,1.57,10.1,10.1,0,0,0,2.95-.65,29.66,29.66,0,0,0,5.54-3.23q3-2.13,9.23-6.56A20.34,20.34,0,0,0,367,705.6c-.44,2.21.46,3.51,2.67,3.88a9,9,0,0,0,5.35-.56,38.06,38.06,0,0,0,5-2.4,52.93,52.93,0,0,0,6-3.7c1.91-1.35,3.85-2.71,5.82-4.06.41-.35.54-.59.42-.74l3.82-3.33,2.77-.37q-1.11,1.48-2.58,3.88a28.38,28.38,0,0,0-2.4,4.81,9.25,9.25,0,0,0-.74,4.25q.18,1.85,2.58,2.22a9,9,0,0,0,5.35-.56,38.06,38.06,0,0,0,5-2.4,54,54,0,0,0,6-3.7c1.9-1.35,3.84-2.71,5.81-4.06h0a27.52,27.52,0,0,0,2.48-2,18.37,18.37,0,0,1,2.67-2,51.7,51.7,0,0,1-4.61,7.58l-5.17,7c-.12.25.06.37.56.37a3.13,3.13,0,0,0,.92-.18,6.36,6.36,0,0,0,1.66-.56l1.48-.74,12-9.61c.86-.74,1.79-1.48,2.77-2.22s2.34-1.66,4.06-2.77l-2.4,4.81-6.64,10.9c-.25.37.12.43,1.11.19a13.85,13.85,0,0,1,1.66-.37,21.41,21.41,0,0,0,5.9-3.7c1.85-1.6,3.63-3.08,5.36-4.44q2-1.47,4.06-3.14c1.35-1.11,3.13-2.52,5.35-4.25-.25.49-.53,1-.83,1.57s-.59,1.08-.83,1.57c-.62,1-1.23,2-1.85,3s-1.23,2.13-1.84,3.24c-.37.62-.83,1.45-1.39,2.49a3.44,3.44,0,0,0-.46,2.68c.25,1,.77,1.48,1.57,1.48a11.18,11.18,0,0,0,2.12-.18,25.52,25.52,0,0,0,11.07-4.16c2.32-1.53,4.54-3.05,6.69-4.56a11.15,11.15,0,0,0-1,5.2q.19,3.15,4.06,3.52a14.85,14.85,0,0,0,8.49-1.57,22.59,22.59,0,0,0,7.57-5.83,6.78,6.78,0,0,0,2,.74,14.54,14.54,0,0,0,8.4-.27,24.52,24.52,0,0,0,7.47-3.79c.86-.62,1.72-1.21,2.59-1.76s1.72-1.14,2.58-1.76a4.76,4.76,0,0,0-.65.83c-.18.31-.34.59-.46.84a1.78,1.78,0,0,0-.37.92l-7.38,11.46c-.12.25.06.37.55.37a3.13,3.13,0,0,0,.93-.18,8,8,0,0,0,2.95-1.3q4.8-3.69,9.41-7.39t9.6-7l1.11-.55a32,32,0,0,1-3.88,6.28,18.59,18.59,0,0,0-3.51,7.77c-.12,1,.07,1.63.56,1.94a3.4,3.4,0,0,0,1.84.46,11.14,11.14,0,0,0,2.4-.28c.86-.18,1.54-.33,2-.46a32.37,32.37,0,0,0,9.05-4.43q3.67-2.57,7.21-5.14c.37-.19.73-.38,1.09-.59l5.72-3.7q-2.21,2.78-4.34,5.64a22.71,22.71,0,0,0-3.22,6c-.62,1.48-.47,2.38.46,2.68a5.87,5.87,0,0,0,3.41-.09,23.66,23.66,0,0,0,5.26-2.49q2.49-1.57,4.89-3.42l3.32-2.59c1.11-.86,2.22-1.79,3.33-2.77q-4.26,8.31-8.59,16.26t-8.58,16.27q-3.87,7.77-7.2,15.53c-.73,1.73-1.44,3.48-2.12,5.27a36.93,36.93,0,0,0-1.57,5.27c0,.24.25.34.74.28a11.83,11.83,0,0,0,1.66-.37,17.34,17.34,0,0,0,1.76-.65,1.7,1.7,0,0,0,1-.93,53.43,53.43,0,0,1,5.26-15.16q3.78-7.2,7.29-14.23a39.1,39.1,0,0,1,6.18-8,76.18,76.18,0,0,1,7.75-6.75q4.15-3.13,8.49-6t8.59-6C580.26,698.14,580.14,697.83,579.16,697.83Zm-97.26,2a16.9,16.9,0,0,1-5.17,6.09,5.9,5.9,0,0,1-4.52,1.11c-1.66-.24-2.62-1.41-2.86-3.51a9.39,9.39,0,0,1,2.21-6.75,11.4,11.4,0,0,1,5.72-4.34,17.44,17.44,0,0,1,2.4-.18,4.92,4.92,0,0,1,2.22.55Q479.68,696.72,481.9,699.87Z" transform="translate(-153 -398)"/><path class="cls-1" d="M479.68,692.29a17.44,17.44,0,0,0-2.4.18,11.4,11.4,0,0,0-5.72,4.34,9.39,9.39,0,0,0-2.21,6.75c.24,2.1,1.2,3.27,2.86,3.51a5.9,5.9,0,0,0,4.52-1.11,16.9,16.9,0,0,0,5.17-6.09q-2.22-3.15,0-7A4.92,4.92,0,0,0,479.68,692.29Z" transform="translate(-153 -398)"/><path class="cls-1" d="M423.19,851.82a39.76,39.76,0,0,1-3.53-14,108.57,108.57,0,0,1,2.23-30.92q1.68-7.6,3.16-14.48,4.08-18.15,9.66-36.07t11.52-36.08H334.37q-4.1,11.29-8.55,22.09T316.53,764a425.84,425.84,0,0,1-24.16,45.4,130.41,130.41,0,0,1-27.06,31.87,240.45,240.45,0,0,0,190.46,28.46,137.6,137.6,0,0,1-17.71-3.88Q428.39,863.11,423.19,851.82Z" transform="translate(-153 -398)"/><path class="cls-1" d="M319.5,732.55,324,720.28H231.79c-1.48,0-1.73-.49-.74-1.47a25.58,25.58,0,0,0,2.23-2.46q1.86-1,4.09-2.21a9.26,9.26,0,0,1,4.46-1.22h85.11q14.49-39.27,27.5-79.27t26.38-80.25q12.27-37.8,25.09-75.34c8.51-24.93,18.09-51.63,27-76.74A241.72,241.72,0,0,0,393,398c-132.55,0-240,107.45-240,240A239.76,239.76,0,0,0,260.71,838.26q2.3-2.18,4.53-4.6a191,191,0,0,0,30.85-46.87Q308.72,760,319.5,732.55Z" transform="translate(-153 -398)"/></svg>