<svg width="219" height="271" viewBox="0 0 219 271" fill="none" xmlns="http://www.w3.org/2000/svg">
<rect width="219" height="271" fill="#EDEBE9"/>
<path d="M219 76.8862V269.576H0V0H134.881V76.8862H219Z" transform="translate(0 1.42407)" fill="#242C38"/>
<path d="M81.702 78.31H-1.84419e-06V0L81.702 78.31Z" transform="translate(134.881)" fill="#587F98"/>
<path d="M116.993 55.1729H7.7351C4.35099 55.1729 9.22096e-07 51.8507 9.22096e-07 48.0539V27.1712C9.22096e-07 24.3236 1.93378 21.4759 3.86755 19.1029L16.9205 6.76313C26.106 -2.25438 40.6093 -2.25438 49.7947 6.76313L60.9139 17.2045C63.8146 20.0521 68.1656 21.4759 72.5166 21.4759H88.4702C94.2715 21.4759 100.073 24.3235 104.424 28.595L120.861 45.2062C124.245 49.0031 121.828 55.1729 116.993 55.1729Z" transform="translate(44.9608 166.467)" fill="white"/>
<path d="M24.6556 11.8928C24.6556 18.5373 19.3378 24.2326 12.0861 24.2326C5.31788 24.2326 3.68838e-06 19.0119 3.68838e-06 11.8928C3.68838e-06 5.24835 5.31788 0.0276856 12.0861 0.0276856C19.3378 -0.44692 24.6556 5.24835 24.6556 11.8928Z" transform="translate(133.914 147.1)" fill="white"/>
</svg>
